HIERARCHY
ROOT Hips
{
	OFFSET 0.000000 0.000000 0.000000
	CHANNELS 6 Xposition Yposition Zposition Xrotation Yrotation Zrotation
	JOINT LeftUpLeg_virtual
	{
		OFFSET 0.000000 0.000000 0.000000
		CHANNELS 3 Xrotation Yrotation Zrotation
		JOINT LeftUpLeg
		{
			OFFSET 10.205400 -3.823500 0.155100
			CHANNELS 3 Xrotation Yrotation Zrotation
			JOINT LeftLeg
			{
				OFFSET 0.708757 -12.982077 0.567790
				CHANNELS 3 Xrotation Yrotation Zrotation
				JOINT LeftFoot
				{
					OFFSET -0.708756 -10.717838 -2.184338
					CHANNELS 3 Xrotation Yrotation Zrotation
					JOINT LeftToeBase
					{
						OFFSET 0.108149 -7.191104 7.560241
						CHANNELS 3 Xrotation Yrotation Zrotation
						JOINT LeftToe_End
						{
							OFFSET 0.070230 0.081724 4.490308
							CHANNELS 3 Xrotation Yrotation Zrotation
							End Site
							{
								OFFSET 0 0 0
							}
						}
					}
				}
			}
		}
	}
	JOINT RightUpLeg_virtual
	{
		OFFSET 0.000000 0.000000 0.000000
		CHANNELS 3 Xrotation Yrotation Zrotation
		JOINT RightUpLeg
		{
			OFFSET -10.205400 -3.823500 0.005500
			CHANNELS 3 Xrotation Yrotation Zrotation
			JOINT RightLeg
			{
				OFFSET -0.708756 -12.982134 0.610632
				CHANNELS 3 Xrotation Yrotation Zrotation
				JOINT RightFoot
				{
					OFFSET 0.708754 -10.717769 -1.945823
					CHANNELS 3 Xrotation Yrotation Zrotation
					JOINT RightToeBase
					{
						OFFSET -0.108140 -7.191069 7.372968
						CHANNELS 3 Xrotation Yrotation Zrotation
						JOINT RightToe_End
						{
							OFFSET -0.070227 0.081735 4.479403
							CHANNELS 3 Xrotation Yrotation Zrotation
							End Site
							{
								OFFSET 0 0 0
							}
						}
					}
				}
			}
		}
	}
	JOINT Spine_virtual
	{
		OFFSET 0.000000 0.000000 0.000000
		CHANNELS 3 Xrotation Yrotation Zrotation
		JOINT Spine
		{
			OFFSET 0.000000 6.876099 0.125700
			CHANNELS 3 Xrotation Yrotation Zrotation
			JOINT Spine1
			{
				OFFSET 0.000000 5.730043 0.104720
				CHANNELS 3 Xrotation Yrotation Zrotation
				JOINT Spine1_split
				{
					OFFSET 0.000000 5.730043 0.104720
					CHANNELS 3 Xrotation Yrotation Zrotation
					JOINT Spine2
					{
						OFFSET 0.000000 5.730043 0.104720
						CHANNELS 3 Xrotation Yrotation Zrotation
						JOINT Neck_virtual
						{
							OFFSET 0.000000 0.000000 0.000000
							CHANNELS 3 Xrotation Yrotation Zrotation
							JOINT Neck
							{
								OFFSET 0.000000 10.314075 0.188496
								CHANNELS 3 Xrotation Yrotation Zrotation
								JOINT Head
								{
									OFFSET 0.000000 7.643700 -2.377400
									CHANNELS 3 Xrotation Yrotation Zrotation
									JOINT HeadTop_End
									{
										OFFSET 0.000000 43.788605 -13.619600
										CHANNELS 3 Xrotation Yrotation Zrotation
										End Site
										{
											OFFSET 0 0 0
										}
									}
								}
							}
						}
						JOINT LeftShoulder_virtual
						{
							OFFSET 0.000000 0.000000 0.000000
							CHANNELS 3 Xrotation Yrotation Zrotation
							JOINT LeftShoulder
							{
								OFFSET 2.196100 4.412489 0.087492
								CHANNELS 3 Xrotation Yrotation Zrotation
								JOINT LeftShoulder_split
								{
									OFFSET 2.196100 4.412489 0.087492
									CHANNELS 3 Xrotation Yrotation Zrotation
									JOINT LeftArm
									{
										OFFSET 8.771219 -2.981674 -0.026999
										CHANNELS 3 Xrotation Yrotation Zrotation
										JOINT LeftForeArm
										{
											OFFSET 8.512804 0.000000 -0.000000
											CHANNELS 3 Xrotation Yrotation Zrotation
											JOINT LeftHand
											{
												OFFSET 18.484802 0.000000 -0.000000
												CHANNELS 3 Xrotation Yrotation Zrotation
												End Site
												{
													OFFSET 0 0 0
												}
											}
										}
									}
								}
							}
						}
						JOINT RightShoulder_virtual
						{
							OFFSET 0.000000 0.000000 0.000000
							CHANNELS 3 Xrotation Yrotation Zrotation
							JOINT RightShoulder
							{
								OFFSET -2.196100 4.412496 0.070690
								CHANNELS 3 Xrotation Yrotation Zrotation
								JOINT RightShoulder_split
								{
									OFFSET -2.196100 4.412496 0.070690
									CHANNELS 3 Xrotation Yrotation Zrotation
									JOINT RightArm
									{
										OFFSET -8.771282 -2.981682 -0.094208
										CHANNELS 3 Xrotation Yrotation Zrotation
										JOINT RightForeArm
										{
											OFFSET -8.494598 0.000000 0.000000
											CHANNELS 3 Xrotation Yrotation Zrotation
											JOINT RightHand
											{
												OFFSET -18.483803 0.000000 0.000001
												CHANNELS 3 Xrotation Yrotation Zrotation
												End Site
												{
													OFFSET 0 0 0
												}
											}
										}
									}
								}
							}
						}
					}
				}
			}
		}
	}
}
MOTION
Frames: 9
Frame Time: 0.03333333
-0.291183 31.445007 0.046888 0.000000 0.000000 0.000000 -10.796113 -54.466128 -7.000068 -23.254656 10.138821 23.330169 39.342477 9.654163 -2.285707 -4.485499 3.097452 -15.987847 -0.208565 0.099053 0.223845 0.000000 0.000000 0.000000 -10.796113 -54.466128 -7.000068 -15.809876 -17.284673 -28.397662 45.653705 1.193331 -2.417588 -23.518624 -3.404117 18.070196 1.656365 2.194974 2.024738 0.000000 0.000000 0.000000 -10.796113 -54.466128 -7.000068 5.268739 0.388021 0.651928 4.893951 1.120459 0.299612 0.000000 0.000000 0.000000 0.000000 0.000000 0.000000 8.444755 1.036550 0.033107 2.537413 5.572981 -0.185907 2.372534 37.187194 -7.338933 0.000000 0.000000 0.000000 8.444755 1.036550 0.033107 9.150563 -24.592615 -2.246838 0.000000 0.000000 0.000000 -26.053178 8.217173 -60.618789 -91.270179 13.114554 -86.117177 0.000000 0.000000 0.000000 8.444755 1.036550 0.033107 10.411199 20.330622 -1.369233 0.000000 0.000000 0.000000 3.446553 33.597045 47.887880 -111.710223 63.882568 98.143808 0.000000 0.000000 0.000000 
-0.362353 31.369720 0.440626 0.000000 0.000000 0.000000 -9.949979 -51.602421 -6.186080 -25.401989 9.743341 22.515671 40.949194 7.564722 -2.529220 -5.289883 2.707924 -14.122535 -0.178034 0.111281 0.205854 0.000000 0.000000 0.000000 -9.949979 -51.602421 -6.186080 -15.200212 -13.677307 -28.611401 50.626728 -1.612106 -0.152039 -24.133451 -3.353857 16.021039 2.017958 -2.440010 5.570028 0.000000 0.000000 0.000000 -9.949979 -51.602421 -6.186080 5.202808 0.268102 0.850483 4.875919 0.893841 0.313337 0.000000 0.000000 0.000000 0.000000 0.000000 0.000000 8.471700 1.741681 0.006408 2.611685 5.795511 -0.175232 2.871613 40.218514 -7.339838 0.000000 0.000000 0.000000 8.471700 1.741681 0.006408 8.935994 -24.743303 -2.968066 0.000000 0.000000 0.000000 -27.022580 9.098564 -59.788744 -91.418121 12.788573 -85.389761 0.000000 0.000000 0.000000 8.471700 1.741681 0.006408 10.565207 19.946551 -2.142260 0.000000 0.000000 0.000000 2.607385 35.855160 47.333556 -108.235337 63.791597 94.229037 0.000000 0.000000 0.000000 
-0.407036 31.255768 0.926868 0.000000 0.000000 0.000000 -9.201428 -48.728267 -5.510552 -27.545547 9.371469 21.714039 43.063923 5.482121 -3.120140 -6.496838 2.240063 -11.962141 -0.160098 0.116912 0.185211 0.000000 0.000000 0.000000 -9.201428 -48.728267 -5.510552 -15.761823 -8.764728 -28.148987 56.416864 -3.192413 0.565367 -22.348818 -4.041567 16.561638 -0.678264 -5.975418 7.679942 0.000000 0.000000 0.000000 -9.201428 -48.728267 -5.510552 5.204517 0.237924 0.892268 4.863688 0.771861 0.290883 0.000000 0.000000 0.000000 0.000000 0.000000 0.000000 8.586932 3.956528 -0.180188 2.780790 6.315538 -0.101675 4.081562 47.195460 -7.430026 0.000000 0.000000 0.000000 8.586932 3.956528 -0.180188 8.936030 -24.743303 -2.968074 0.000000 0.000000 0.000000 -27.744170 9.347705 -59.481741 -91.593779 12.768117 -84.592904 0.000000 0.000000 0.000000 8.586932 3.956528 -0.180188 10.553704 19.879990 -2.126525 0.000000 0.000000 0.000000 1.488008 36.451620 47.700364 -106.461257 64.067058 92.216064 0.000000 0.000000 0.000000 
-0.399964 31.108513 1.553810 0.000000 0.000000 0.000000 -8.530779 -45.843246 -4.922376 -29.624047 9.154800 20.692132 45.642445 3.462113 -3.829624 -8.166386 1.675405 -9.489423 -0.144655 0.119594 0.167375 0.000000 0.000000 0.000000 -8.530779 -45.843246 -4.922376 -15.587229 -5.045915 -25.868126 58.530705 -3.775830 -0.699247 -22.263167 -5.045232 18.436439 -2.895607 -4.636301 7.022774 0.000000 0.000000 0.000000 -8.530779 -45.843246 -4.922376 5.222693 0.237513 0.833819 4.851443 0.664061 0.254403 0.000000 0.000000 0.000000 0.000000 0.000000 0.000000 8.769060 6.939254 -0.451192 2.984240 6.935094 -0.006117 5.584148 54.917159 -7.697124 0.000000 0.000000 0.000000 8.769060 6.939254 -0.451192 8.936008 -24.743264 -2.968062 0.000000 0.000000 0.000000 -28.339514 9.473792 -59.267471 -91.721552 12.751833 -84.013280 0.000000 0.000000 0.000000 8.769060 6.939254 -0.451192 10.544425 19.799687 -2.108461 0.000000 0.000000 0.000000 0.555402 36.837953 47.982649 -105.082904 64.259991 90.644684 0.000000 0.000000 0.000000 
-0.392790 30.967766 2.325571 0.000000 0.000000 0.000000 -7.922190 -42.936338 -4.405938 -31.363570 9.260722 19.307881 48.263671 1.569204 -4.174061 -10.149407 1.020633 -7.022833 -0.132980 0.121122 0.153857 0.000000 0.000000 0.000000 -7.922190 -42.936338 -4.405938 -15.814893 -2.306914 -23.564091 59.469043 -2.339317 -2.698351 -22.410506 -5.917637 20.231169 -5.707225 -1.939871 5.154681 0.000000 0.000000 0.000000 -7.922190 -42.936338 -4.405938 5.249408 0.261290 0.719385 4.840479 0.567632 0.215606 0.000000 0.000000 0.000000 0.000000 0.000000 0.000000 8.985984 10.031362 -0.753894 3.159022 7.452325 0.085824 6.606703 60.194560 -7.800834 0.000000 0.000000 0.000000 8.985984 10.031362 -0.753894 8.936004 -24.743269 -2.968071 0.000000 0.000000 0.000000 -28.887377 9.462257 -59.134794 -91.816102 12.738692 -83.583470 0.000000 0.000000 0.000000 8.985984 10.031362 -0.753894 10.538768 19.739773 -2.095242 0.000000 0.000000 0.000000 -0.255608 36.989405 48.190669 -103.995026 64.399914 89.398741 0.000000 0.000000 0.000000 
-0.386049 30.878246 3.195734 0.000000 0.000000 0.000000 -7.364518 -39.994965 -3.943373 -32.567725 9.774983 17.664978 50.385220 -0.225466 -4.236635 -12.059767 0.216295 -4.525659 -0.127447 0.121764 0.147375 0.000000 0.000000 0.000000 -7.364518 -39.994965 -3.943373 -16.237074 -0.367070 -21.829834 59.527551 1.021319 -3.854838 -22.813860 -6.083879 20.687808 -8.466036 0.511595 2.850508 0.000000 0.000000 0.000000 -7.364518 -39.994965 -3.943373 5.291676 0.307996 0.596649 4.827342 0.486997 0.184786 0.000000 0.000000 0.000000 0.000000 0.000000 0.000000 9.169683 12.582086 -1.034140 3.249695 7.667428 0.141689 6.718789 62.163205 -7.633986 0.000000 0.000000 0.000000 9.169683 12.582086 -1.034140 8.936012 -24.743294 -2.968064 0.000000 0.000000 0.000000 -29.393972 9.305388 -59.020136 -91.883147 12.729253 -83.278885 0.000000 0.000000 0.000000 9.169683 12.582086 -1.034140 10.535593 19.698382 -2.086265 0.000000 0.000000 0.000000 -0.918671 36.983647 48.243812 -103.112572 64.502298 88.415016 0.000000 0.000000 0.000000 
-0.364387 30.869797 4.032532 0.000000 0.000000 0.000000 -6.849269 -37.004414 -3.538387 -33.222631 10.284568 15.836045 51.554275 -1.639503 -4.157517 -13.303214 -0.756746 -2.207557 -0.122278 0.121685 0.141584 0.000000 0.000000 0.000000 -6.849269 -37.004414 -3.538387 -17.178481 1.420492 -19.940379 59.983240 4.817498 -4.657441 -23.482542 -5.498082 20.093571 -9.910949 0.089016 0.763923 0.000000 0.000000 0.000000 -6.849269 -37.004414 -3.538387 5.346805 0.373451 0.489853 4.817711 0.419696 0.159609 0.000000 0.000000 0.000000 0.000000 0.000000 0.000000 9.303252 14.611764 -1.303208 3.268271 7.659868 0.165449 6.549331 62.805502 -7.615334 0.000000 0.000000 0.000000 9.303252 14.611764 -1.303208 8.936025 -24.743282 -2.968056 0.000000 0.000000 0.000000 -29.910512 9.198807 -58.989714 -91.919641 12.723733 -83.113485 0.000000 0.000000 0.000000 9.303252 14.611764 -1.303208 10.533522 19.637146 -2.073479 0.000000 0.000000 0.000000 -1.490199 36.950012 48.223441 -102.403237 64.577950 87.636511 0.000000 0.000000 0.000000 
-0.325926 30.928532 4.717822 0.000000 0.000000 0.000000 -6.371342 -33.964372 -3.194317 -33.581585 10.338385 13.878506 51.782792 -2.501960 -3.989334 -13.587682 -1.779828 -0.337751 -0.120799 0.121075 0.139681 0.000000 0.000000 0.000000 -6.371342 -33.964372 -3.194317 -19.166470 2.975172 -17.274073 61.351580 8.106926 -5.974331 -23.722203 -4.119985 18.715627 -10.777135 -0.201868 -0.822430 0.000000 0.000000 0.000000 -6.371342 -33.964372 -3.194317 5.408431 0.450341 0.389789 4.803040 0.357244 0.134776 0.000000 0.000000 0.000000 0.000000 0.000000 0.000000 9.421527 16.549267 -1.597795 3.273763 7.643102 0.181894 6.343460 63.200355 -7.602279 0.000000 0.000000 0.000000 9.421527 16.549267 -1.597795 8.936017 -24.743294 -2.968057 0.000000 0.000000 0.000000 -30.341558 9.420651 -58.984592 -91.900673 12.726493 -83.200146 0.000000 0.000000 0.000000 9.421527 16.549267 -1.597795 10.529917 19.647369 -2.074854 0.000000 0.000000 0.000000 -1.938465 37.010534 48.232976 -102.029414 64.614115 87.242641 0.000000 0.000000 0.000000 
-0.303588 31.015827 5.255264 0.000000 0.000000 0.000000 -5.928739 -30.897785 -2.905448 -33.833615 9.791206 11.914369 51.457136 -2.908378 -3.814850 -13.187859 -2.750389 1.020674 -0.120393 0.120096 0.139278 0.000000 0.000000 0.000000 -5.928739 -30.897785 -2.905448 -21.652057 4.443847 -13.235234 63.163984 9.636031 -8.530952 -23.720187 -2.562097 17.405135 -10.809007 -0.702887 -1.598050 0.000000 0.000000 0.000000 -5.928739 -30.897785 -2.905448 5.473419 0.540960 0.303828 4.791439 0.306059 0.109425 0.000000 0.000000 0.000000 0.000000 0.000000 0.000000 9.541928 18.367782 -1.903806 3.271561 7.617324 0.193976 6.102502 63.372626 -7.578635 0.000000 0.000000 0.000000 9.541928 18.367782 -1.903806 8.936030 -24.743258 -2.968066 0.000000 0.000000 0.000000 -30.599609 9.741991 -58.947832 -91.822406 12.737859 -83.556545 0.000000 0.000000 0.000000 9.541928 18.367782 -1.903806 10.528492 19.609475 -2.066922 0.000000 0.000000 0.000000 -2.259559 37.149768 48.246079 -102.045383 64.609935 87.283308 0.000000 0.000000 0.000000 
